<svg width="1280" height="960" viewBox="0 0 1280 960" fill="none" xmlns="http://www.w3.org/2000/svg">
  <rect width="1280" height="960" rx="44" fill="#07111B"/>
  <rect x="52" y="48" width="1176" height="864" rx="34" fill="#0B1727" stroke="#19324E"/>
  <circle cx="96" cy="94" r="10" fill="#FF8B8B"/>
  <circle cx="128" cy="94" r="10" fill="#FFBE72"/>
  <circle cx="160" cy="94" r="10" fill="#9DF0B0"/>
  <rect x="88" y="146" width="388" height="264" rx="28" fill="url(#paint0_linear)"/>
  <rect x="500" y="146" width="692" height="112" rx="28" fill="#101F34"/>
  <rect x="532" y="180" width="228" height="16" rx="8" fill="#78D6FF"/>
  <rect x="532" y="214" width="460" height="12" rx="6" fill="#294564"/>
  <rect x="88" y="438" width="528" height="412" rx="30" fill="#0F1D31"/>
  <rect x="644" y="296" width="548" height="216" rx="28" fill="#0F1D31"/>
  <rect x="644" y="542" width="548" height="308" rx="28" fill="#0F1D31"/>
  <rect x="116" y="474" width="180" height="180" rx="22" fill="#142741"/>
  <rect x="318" y="474" width="268" height="28" rx="14" fill="#FFBE72"/>
  <rect x="318" y="520" width="216" height="18" rx="9" fill="#27415E"/>
  <rect x="318" y="556" width="228" height="18" rx="9" fill="#27415E"/>
  <rect x="318" y="592" width="192" height="18" rx="9" fill="#27415E"/>
  <rect x="318" y="642" width="248" height="126" rx="18" fill="#122337"/>
  <rect x="676" y="332" width="112" height="112" rx="22" fill="url(#paint1_linear)"/>
  <rect x="818" y="332" width="344" height="24" rx="12" fill="#78D6FF"/>
  <rect x="818" y="376" width="278" height="18" rx="9" fill="#27415E"/>
  <rect x="818" y="410" width="300" height="18" rx="9" fill="#27415E"/>
  <rect x="676" y="578" width="484" height="36" rx="18" fill="#142741"/>
  <rect x="676" y="638" width="248" height="152" rx="24" fill="#122337"/>
  <rect x="944" y="638" width="216" height="152" rx="24" fill="url(#paint2_linear)"/>
  <rect x="132" y="206" width="300" height="20" rx="10" fill="#EAF6FF"/>
  <rect x="132" y="246" width="250" height="14" rx="7" fill="#D4EFFF"/>
  <rect x="132" y="290" width="190" height="48" rx="24" fill="#07111B"/>
  <rect x="162" y="306" width="118" height="14" rx="7" fill="#FFBE72"/>
  <defs>
    <linearGradient id="paint0_linear" x1="88" y1="146" x2="476" y2="410" gradientUnits="userSpaceOnUse">
      <stop stop-color="#3DA9FF"/>
      <stop offset="1" stop-color="#FF9655"/>
    </linearGradient>
    <linearGradient id="paint1_linear" x1="676" y1="332" x2="788" y2="444" gradientUnits="userSpaceOnUse">
      <stop stop-color="#9DF0B0"/>
      <stop offset="1" stop-color="#3DA9FF"/>
    </linearGradient>
    <linearGradient id="paint2_linear" x1="944" y1="638" x2="1160" y2="790" gradientUnits="userSpaceOnUse">
      <stop stop-color="#FFBE72"/>
      <stop offset="1" stop-color="#3DA9FF"/>
    </linearGradient>
  </defs>
</svg>
