<svg width="900" height="640" viewBox="0 0 900 640" fill="none" xmlns="http://www.w3.org/2000/svg">
  <rect width="900" height="640" rx="36" fill="#07111B"/>
  <rect x="44" y="44" width="812" height="552" rx="28" fill="#0B1727" stroke="#1B3451"/>
  <rect x="90" y="110" width="198" height="174" rx="24" fill="url(#paint0_linear)"/>
  <rect x="320" y="110" width="490" height="78" rx="22" fill="#102036"/>
  <rect x="350" y="136" width="198" height="14" rx="7" fill="#78D6FF"/>
  <rect x="350" y="162" width="320" height="12" rx="6" fill="#27415E"/>
  <rect x="90" y="320" width="220" height="220" rx="24" fill="#102036"/>
  <rect x="340" y="224" width="470" height="120" rx="24" fill="#0F1D31"/>
  <rect x="340" y="374" width="470" height="166" rx="24" fill="#0F1D31"/>
  <circle cx="198" cy="408" r="54" fill="#16304E"/>
  <rect x="170" y="476" width="56" height="14" rx="7" fill="#FFBE72"/>
  <rect x="376" y="254" width="92" height="92" rx="18" fill="#132742"/>
  <rect x="492" y="254" width="284" height="18" rx="9" fill="#FFBE72"/>
  <rect x="492" y="286" width="222" height="14" rx="7" fill="#294564"/>
  <rect x="492" y="314" width="238" height="14" rx="7" fill="#294564"/>
  <rect x="376" y="404" width="184" height="102" rx="18" fill="url(#paint1_linear)"/>
  <rect x="584" y="404" width="192" height="102" rx="18" fill="#132742"/>
  <defs>
    <linearGradient id="paint0_linear" x1="90" y1="110" x2="288" y2="284" gradientUnits="userSpaceOnUse">
      <stop stop-color="#3DA9FF"/>
      <stop offset="1" stop-color="#FF9655"/>
    </linearGradient>
    <linearGradient id="paint1_linear" x1="376" y1="404" x2="560" y2="506" gradientUnits="userSpaceOnUse">
      <stop stop-color="#9DF0B0"/>
      <stop offset="1" stop-color="#3DA9FF"/>
    </linearGradient>
  </defs>
</svg>
