<svg width="640" height="420" viewBox="0 0 640 420" fill="none" xmlns="http://www.w3.org/2000/svg">
  <rect width="640" height="420" rx="28" fill="#0D1726"/>
  <rect x="70" y="88" width="500" height="244" rx="28" fill="#1B314E"/>
  <rect x="118" y="60" width="404" height="60" rx="20" fill="#FF9655"/>
  <rect x="150" y="80" width="120" height="16" rx="8" fill="#FFF5EA"/>
  <circle cx="198" cy="210" r="58" fill="#203653"/>
  <path d="M178 212C178 187.147 198.147 167 223 167V167C247.853 167 268 187.147 268 212V246H178V212Z" fill="#FFBE72"/>
  <rect x="338" y="158" width="160" height="22" rx="11" fill="#78D6FF"/>
  <rect x="338" y="198" width="128" height="16" rx="8" fill="#294564"/>
  <rect x="338" y="228" width="142" height="16" rx="8" fill="#294564"/>
  <rect x="338" y="262" width="112" height="52" rx="16" fill="#102036"/>
</svg>
